<mxfile host="65bd71144e">
    <diagram id="-QcmfgvZgJDTCgp4cOre" name="Page-1">
        <mxGraphModel dx="976" dy="340" grid="1" gridSize="10" guides="1" tooltips="1" connect="1" arrows="1" fold="1" page="1" pageScale="1" pageWidth="850" pageHeight="1100" math="0" shadow="0">
            <root>
                <mxCell id="0"/>
                <mxCell id="1" parent="0"/>
                <mxCell id="2" value="App" style="ellipse" vertex="1" parent="1">
                    <mxGeometry x="385" y="40" width="80" height="30" as="geometry"/>
                </mxCell>
                <mxCell id="3" value="Hog Filter/sort" style="rounded=1;" vertex="1" parent="1">
                    <mxGeometry x="385" y="100" width="80" height="30" as="geometry"/>
                </mxCell>
                <mxCell id="4" value="" style="curved=1;noEdgeStyle=1;orthogonal=1;exitX=0.5;exitY=1;exitDx=0;exitDy=0;" edge="1" source="2" target="3" parent="1">
                    <mxGeometry relative="1" as="geometry">
                        <Array as="points">
                            <mxPoint x="425" y="88"/>
                        </Array>
                    </mxGeometry>
                </mxCell>
                <mxCell id="7" value="HogCard" style="rounded=1;" vertex="1" parent="1">
                    <mxGeometry x="385" y="180" width="80" height="30" as="geometry"/>
                </mxCell>
                <mxCell id="8" value="" style="curved=1;noEdgeStyle=1;orthogonal=1;" edge="1" source="3" target="7" parent="1">
                    <mxGeometry relative="1" as="geometry">
                        <Array as="points">
                            <mxPoint x="442.5" y="142"/>
                            <mxPoint x="420" y="180"/>
                        </Array>
                    </mxGeometry>
                </mxCell>
                <mxCell id="9" value="Additional info" style="rounded=1;" vertex="1" parent="1">
                    <mxGeometry x="385" y="250" width="80" height="30" as="geometry"/>
                </mxCell>
                <mxCell id="10" value="" style="curved=1;noEdgeStyle=1;orthogonal=1;entryX=0.5;entryY=0;entryDx=0;entryDy=0;" edge="1" source="7" target="9" parent="1">
                    <mxGeometry relative="1" as="geometry">
                        <Array as="points">
                            <mxPoint x="430" y="230"/>
                        </Array>
                    </mxGeometry>
                </mxCell>
            </root>
        </mxGraphModel>
    </diagram>
</mxfile>